<svg width="212" height="38" fill="none" xmlns="http://www.w3.org/2000/svg"><path d="M0 0h186.622L212 19l-25.378 19H0l25.465-19L0 0z" fill="#88C74A"/><path d="M100.658 17.78c1.294.16 2.28.6 2.96 1.32.68.72 1.02 1.62 1.02 2.7 0 .813-.206 1.553-.62 2.22-.413.667-1.04 1.2-1.88 1.6-.826.387-1.84.58-3.04.58-1 0-1.966-.14-2.9-.42-.92-.293-1.706-.693-2.36-1.2l1.12-2.02c.507.427 1.12.767 1.84 1.02a7.22 7.22 0 002.26.36c.92 0 1.64-.187 2.16-.56.534-.387.8-.907.8-1.56s-.253-1.16-.76-1.52c-.493-.373-1.253-.56-2.28-.56h-1.28v-1.78l3.18-3.78h-6.36V12h9.54v1.74l-3.4 4.04zm8.606 1.76c-1 0-1.807-.353-2.42-1.06-.614-.707-.92-1.633-.92-2.78 0-1.147.306-2.073.92-2.78.613-.707 1.42-1.06 2.42-1.06s1.806.353 2.42 1.06c.626.693.94 1.62.94 2.78 0 1.16-.314 2.093-.94 2.8-.614.693-1.42 1.04-2.42 1.04zm8.4-7.54h1.96l-9.56 14h-1.96l9.56-14zm-8.4 6.14c.546 0 .966-.213 1.26-.64.306-.427.46-1.027.46-1.8 0-.773-.154-1.373-.46-1.8-.294-.427-.714-.64-1.26-.64-.52 0-.94.22-1.26.66-.307.427-.46 1.02-.46 1.78s.153 1.36.46 1.8c.32.427.74.64 1.26.64zm9.18 8c-1 0-1.807-.353-2.42-1.06-.614-.707-.92-1.633-.92-2.78 0-1.147.306-2.073.92-2.78.613-.707 1.42-1.06 2.42-1.06s1.806.353 2.42 1.06c.626.707.94 1.633.94 2.78 0 1.147-.314 2.073-.94 2.78-.614.707-1.42 1.06-2.42 1.06zm0-1.4c.533 0 .953-.213 1.26-.64.306-.44.46-1.04.46-1.8s-.154-1.353-.46-1.78a1.456 1.456 0 00-1.26-.66c-.534 0-.954.213-1.26.64-.307.427-.46 1.027-.46 1.8 0 .773.153 1.373.46 1.8.306.427.726.64 1.26.64z" fill="#fff"/></svg>