<svg width="215" height="192" fill="none" xmlns="http://www.w3.org/2000/svg"><path d="M1.4 183.506a1 1 0 00-.001 1.414l6.357 6.371a1 1 0 001.416-1.413l-5.651-5.663 5.663-5.651a1 1 0 10-1.413-1.415l-6.37 6.357zM211.654 1.001c.036 42.014.061 74.395-3.2 99.381-3.258 24.973-9.78 42.373-22.693 54.56-12.93 12.202-32.423 19.327-61.981 23.363-29.55 4.035-68.991 4.963-121.672 4.909l-.002 2c52.67.054 92.24-.872 121.944-4.927 29.695-4.055 49.696-11.256 63.084-23.891 13.404-12.65 20.021-30.597 23.304-55.756 3.281-25.145 3.252-57.68 3.216-99.64l-2 .001z" fill="#000"/></svg>