<svg width="50" height="50" fill="none" xmlns="http://www.w3.org/2000/svg"><circle cx="25" cy="25" r="25" fill="#000"/><path d="M33.227 15H18.025C16.308 15 15 16.308 15 18.024v15.202c0 1.716 1.307 3.024 3.024 3.024h15.202c1.716 0 3.024-1.308 3.024-3.024V18.024c0-1.716-1.308-3.024-3.024-3.024zm-7.601 17C29.14 32 32 29.221 32 25.87c0-.572-.082-1.226-.246-1.716h1.798v8.663a.819.819 0 01-.817.818h-14.22a.819.819 0 01-.817-.818v-8.745h1.88a6.224 6.224 0 00-.246 1.716C19.25 29.221 22.112 32 25.625 32zm0-2.452c-2.289 0-4.087-1.798-4.087-4.005 0-2.206 1.798-4.005 4.086-4.005 2.289 0 4.087 1.799 4.087 4.005 0 2.289-1.798 4.005-4.087 4.005zm7.846-8.745c0 .49-.409.899-.9.899h-2.288a.907.907 0 01-.899-.9v-2.206c0-.49.409-.899.9-.899h2.288c.49 0 .899.409.899.9v2.206z" fill="#fff"/></svg>