<svg width="30" height="30" fill="none" xmlns="http://www.w3.org/2000/svg"><circle cx="15" cy="15" r="15" fill="#88C74A"/><path fill="#fff" d="M5.245 8.444h19.511v14.452H5.245z"/><path d="M26.923 23.485a.89.89 0 01-.348.679c-.222.18-.521.282-.834.284H4.26c-.314 0-.615-.102-.836-.282a.882.882 0 01-.347-.68v-.977H24.54V11.168L15 18.148 3.077 9.422V7.969c0-.257.126-.504.35-.685.223-.182.526-.284.842-.284h21.462c.316 0 .62.102.843.284.224.181.35.428.35.685v15.516zM5.98 8.938L15 15.54l9.021-6.602H5.98z" fill="#88C74A"/><rect x="3.077" y="7" width="2.326" height="17.448" rx="1" fill="#88C74A"/></svg>