<svg width="63" height="52" fill="none" xmlns="http://www.w3.org/2000/svg"><path d="M60 11.556h3v28.888h-3v8.667c0 .766-.316 1.501-.879 2.043A3.06 3.06 0 0157 52H3a3.06 3.06 0 01-2.121-.846A2.836 2.836 0 010 49.11V2.89C0 2.123.316 1.388.879.846A3.06 3.06 0 013 0h54a3.06 3.06 0 012.121.846c.563.542.879 1.277.879 2.043v8.667zm-6 28.888H36c-3.978 0-7.794-1.521-10.607-4.23C22.58 33.504 21 29.83 21 26s1.58-7.505 4.393-10.214c2.813-2.709 6.629-4.23 10.607-4.23h18V5.778H6v40.444h48v-5.778zm3-5.777V17.333H36c-2.387 0-4.676.913-6.364 2.539C27.948 21.497 27 23.702 27 26c0 2.299.948 4.503 2.636 6.128 1.688 1.626 3.977 2.539 6.364 2.539h21zM36 23.11h9v5.778h-9V23.11z" fill="#88C74A"/></svg>