<svg width="60" height="57" fill="none" xmlns="http://www.w3.org/2000/svg"><path stroke="#000" stroke-width="4" d="M30.305.521v54.093m0-54.093v54.093"/><path stroke="#fff" stroke-width="4" d="M30.305.521v54.093"/><path stroke="#000" stroke-width="4" d="M40.8 1.409l-9.948 10.04m9.947-10.04l-9.947 10.04"/><path stroke="#fff" stroke-width="4" d="M40.8 1.409l-9.948 10.04"/><path stroke="#000" stroke-width="4" d="M29.787 11.448L19.84 1.407m9.947 10.04L19.84 1.408"/><path stroke="#fff" stroke-width="4" d="M29.787 11.448L19.84 1.407"/><path transform="scale(.99532 1.00465) rotate(-45 78.137 1.81)" stroke="#000" stroke-width="4" d="M0-2h14.134M0-2h14.134"/><path transform="scale(.99532 1.00465) rotate(-45 78.137 1.81)" stroke="#fff" stroke-width="4" d="M0-2h14.134"/><path stroke="#000" stroke-width="4" d="M30.85 44.592l9.948 10.041m-9.947-10.04l9.947 10.04"/><path stroke="#fff" stroke-width="4" d="M30.85 44.592l9.948 10.041"/><path transform="matrix(.86504 .50167 -.4947 .86909 4.686 16.287)" stroke="#000" stroke-width="4" d="M0-2h57.236M0-2h57.236"/><path transform="matrix(.86504 .50167 -.4947 .86909 4.686 16.287)" stroke="#fff" stroke-width="4" d="M0-2h57.236"/><path transform="matrix(.2576 .97042 -.9614 .26002 9.477 6.867)" stroke="#000" stroke-width="4" d="M0-2h14.134M0-2h14.134"/><path transform="matrix(.2576 .97042 -.9614 .26002 9.477 6.867)" stroke="#fff" stroke-width="4" d="M0-2h14.134"/><path transform="matrix(-.9614 .26002 -.2576 -.97042 14.305 18.509)" stroke="#000" stroke-width="4" d="M0-2h14.134M0-2h14.134"/><path transform="matrix(-.9614 .26002 -.2576 -.97042 14.305 18.509)" stroke="#fff" stroke-width="4" d="M0-2h14.134"/><path transform="matrix(-.2576 -.97042 .9614 -.26002 50.566 51.235)" stroke="#000" stroke-width="4" d="M0-2h14.134M0-2h14.134"/><path transform="matrix(-.2576 -.97042 .9614 -.26002 50.566 51.235)" stroke="#fff" stroke-width="4" d="M0-2h14.134"/><path transform="matrix(.9614 -.26002 .2576 .97042 45.739 39.593)" stroke="#000" stroke-width="4" d="M0-2h14.134M0-2h14.134"/><path transform="matrix(.9614 -.26002 .2576 .97042 45.739 39.593)" stroke="#fff" stroke-width="4" d="M0-2h14.134"/><path transform="matrix(-.86782 .49676 -.48985 -.87188 53.625 12.973)" stroke="#000" stroke-width="4" d="M0-2h56.42M0-2h56.42"/><path transform="matrix(-.86782 .49676 -.48985 -.87188 53.625 12.973)" stroke="#fff" stroke-width="4" d="M0-2h56.42"/><path transform="matrix(-.9614 -.26002 .2576 -.97042 59.31 21.871)" stroke="#000" stroke-width="4" d="M0-2h14.134M0-2h14.134"/><path transform="matrix(-.9614 -.26002 .2576 -.97042 59.31 21.871)" stroke="#fff" stroke-width="4" d="M0-2h14.134"/><path transform="matrix(.2576 -.97042 .9614 .26002 46.909 20.27)" stroke="#000" stroke-width="4" d="M0-2h14.134M0-2h14.134"/><path transform="matrix(.2576 -.97042 .9614 .26002 46.909 20.27)" stroke="#fff" stroke-width="4" d="M0-2h14.134"/><path transform="matrix(.9614 .26002 -.2576 .97042 .7 35.605)" stroke="#000" stroke-width="4" d="M0-2h14.134M0-2h14.134"/><path transform="matrix(.9614 .26002 -.2576 .97042 .7 35.605)" stroke="#fff" stroke-width="4" d="M0-2h14.134"/><path transform="matrix(-.2576 .97042 -.9614 -.26002 13.102 37.206)" stroke="#000" stroke-width="4" d="M0-2h14.134M0-2h14.134"/><path transform="matrix(-.2576 .97042 -.9614 -.26002 13.102 37.206)" stroke="#fff" stroke-width="4" d="M0-2h14.134"/></svg>