<svg width="60" height="57" fill="none" xmlns="http://www.w3.org/2000/svg"><path d="M30.305.521v54.093m0-54.093v54.093"/><path stroke="#fff" stroke-width="4" d="M30.305.521v54.093"/><path d="M40.785 1.42l-9.947 10.042M40.785 1.42l-9.947 10.042"/><path stroke="#fff" stroke-width="4" d="M40.8 1.409l-9.948 10.04"/><path d="M29.8 11.461l-9.947-10.04m9.947 10.04l-9.947-10.04"/><path stroke="#fff" stroke-width="4" d="M29.787 11.448L19.84 1.407"/><path d="M20.097 54.62l9.948-10.04m-9.948 10.04l9.948-10.04"/><path transform="scale(.99532 1.00465) rotate(-45 78.137 1.81)" stroke="#fff" stroke-width="4" d="M0-2h14.134"/><path d="M30.838 44.58l9.948 10.04m-9.948-10.04l9.948 10.04"/><path stroke="#fff" stroke-width="4" d="M30.85 44.592l9.948 10.041"/><path d="M5.676 14.548l49.511 28.714M5.676 14.548l49.511 28.714"/><path transform="matrix(.86504 .50167 -.4947 .86909 4.686 16.287)" stroke="#fff" stroke-width="4" d="M0-2h57.236"/><path d="M11.4 6.347l3.641 13.716M11.4 6.347l3.641 13.716"/><path transform="matrix(.2576 .97042 -.9614 .26002 9.477 6.867)" stroke="#fff" stroke-width="4" d="M0-2h14.134"/><path d="M14.82 20.45L1.23 24.125m13.59-3.675L1.23 24.125"/><path transform="matrix(-.9614 .26002 -.2576 -.97042 14.305 18.509)" stroke="#fff" stroke-width="4" d="M0-2h14.134"/><path d="M48.644 51.755l-3.641-13.716m3.641 13.716l-3.641-13.716"/><path transform="matrix(-.2576 -.97042 .9614 -.26002 50.566 51.235)" stroke="#fff" stroke-width="4" d="M0-2h14.134"/><path d="M45.224 37.652l13.588-3.675m-13.588 3.675l13.588-3.675"/><path transform="matrix(.9614 -.26002 .2576 .97042 45.739 39.593)" stroke="#fff" stroke-width="4" d="M0-2h14.134"/><path d="M54.605 14.716L5.642 42.743m48.963-28.027L5.642 42.743"/><path transform="matrix(-.86782 .49676 -.48985 -.87188 53.625 12.973)" stroke="#fff" stroke-width="4" d="M0-2h56.42"/><path d="M58.796 23.812l-13.589-3.675m13.589 3.675l-13.589-3.675"/><path transform="matrix(-.9614 -.26002 .2576 -.97042 59.31 21.871)" stroke="#fff" stroke-width="4" d="M0-2h14.134"/><path d="M44.986 19.75l3.64-13.716m-3.64 13.716l3.64-13.716"/><path transform="matrix(.2576 -.97042 .9614 .26002 46.909 20.27)" stroke="#fff" stroke-width="4" d="M0-2h14.134"/><path d="M1.215 33.664l13.588 3.675M1.215 33.664l13.588 3.675"/><path transform="matrix(.9614 .26002 -.2576 .97042 .7 35.605)" stroke="#fff" stroke-width="4" d="M0-2h14.134"/><path d="M15.025 37.726l-3.641 13.716m3.641-13.716l-3.641 13.716"/><path transform="matrix(-.2576 .97042 -.9614 -.26002 13.102 37.206)" stroke="#fff" stroke-width="4" d="M0-2h14.134"/></svg>