<svg width="25" height="28" fill="none" xmlns="http://www.w3.org/2000/svg"><path d="M2.778 27.138H0v-1.383c.006-5.344 4.355-9.674 9.722-9.68h5.556c5.367.006 9.716 4.336 9.722 9.68v1.383h-2.778v-1.383c-.004-3.817-3.11-6.91-6.944-6.915H9.722c-3.833.005-6.94 3.098-6.944 6.915v1.383zM12.5 14.69c-3.835 0-6.944-3.095-6.944-6.914 0-3.82 3.109-6.915 6.944-6.915s6.944 3.096 6.944 6.915c-.004 3.817-3.11 6.91-6.944 6.914zm0-11.063c-2.301 0-4.167 1.857-4.167 4.149 0 2.291 1.866 4.149 4.167 4.149 2.301 0 4.167-1.858 4.167-4.15 0-2.29-1.866-4.148-4.167-4.148z" fill="#F2F2F2"/></svg>