<svg width="211" height="38" fill="none" xmlns="http://www.w3.org/2000/svg"><path d="M0 0h185.741L211 19l-25.259 19H0l25.345-19L0 0z" fill="#E1E1E1"/><path d="M97.982 17.36c.92 0 1.747.18 2.48.54a4.01 4.01 0 011.72 1.5c.414.653.62 1.407.62 2.26 0 .907-.226 1.707-.68 2.4a4.52 4.52 0 01-1.84 1.58c-.773.373-1.64.56-2.6.56-1.92 0-3.413-.6-4.48-1.8-1.053-1.2-1.58-2.92-1.58-5.16 0-1.573.287-2.913.86-4.02.573-1.12 1.374-1.967 2.4-2.54 1.04-.587 2.24-.88 3.6-.88.72 0 1.394.08 2.02.24.64.147 1.194.367 1.66.66l-.96 1.96c-.693-.453-1.58-.68-2.66-.68-1.347 0-2.4.413-3.16 1.24-.76.827-1.14 2.02-1.14 3.58v.02c.413-.48.94-.84 1.58-1.08.64-.253 1.36-.38 2.16-.38zm-.44 6.8c.814 0 1.474-.213 1.98-.64.507-.44.76-1.02.76-1.74 0-.733-.253-1.313-.76-1.74-.507-.427-1.187-.64-2.04-.64-.84 0-1.526.227-2.06.68a2.183 2.183 0 00-.78 1.72c0 .68.254 1.247.76 1.7.52.44 1.233.66 2.14.66zm9.349-4.62c-1 0-1.807-.353-2.42-1.06-.614-.707-.92-1.633-.92-2.78 0-1.147.306-2.073.92-2.78.613-.707 1.42-1.06 2.42-1.06s1.806.353 2.42 1.06c.626.693.94 1.62.94 2.78 0 1.16-.314 2.093-.94 2.8-.614.693-1.42 1.04-2.42 1.04zm8.4-7.54h1.96l-9.56 14h-1.96l9.56-14zm-8.4 6.14c.546 0 .966-.213 1.26-.64.306-.427.46-1.027.46-1.8 0-.773-.154-1.373-.46-1.8-.294-.427-.714-.64-1.26-.64-.52 0-.94.22-1.26.66-.307.427-.46 1.02-.46 1.78s.153 1.36.46 1.8c.32.427.74.64 1.26.64zm9.18 8c-1 0-1.807-.353-2.42-1.06-.614-.707-.92-1.633-.92-2.78 0-1.147.306-2.073.92-2.78.613-.707 1.42-1.06 2.42-1.06s1.806.353 2.42 1.06c.626.707.94 1.633.94 2.78 0 1.147-.314 2.073-.94 2.78-.614.707-1.42 1.06-2.42 1.06zm0-1.4c.533 0 .953-.213 1.26-.64.306-.44.46-1.04.46-1.8s-.154-1.353-.46-1.78a1.456 1.456 0 00-1.26-.66c-.534 0-.954.213-1.26.64-.307.427-.46 1.027-.46 1.8 0 .773.153 1.373.46 1.8.306.427.726.64 1.26.64z" fill="#868686"/></svg>