<svg width="215" height="38" fill="none" xmlns="http://www.w3.org/2000/svg"><path d="M.005 0h189.248L215 19l-25.747 19H0l25.294-19L.005 0z" fill="#E1E1E1"/><path d="M97.89 11.8c1.92 0 3.406.6 4.459 1.8 1.067 1.2 1.6 2.92 1.6 5.16 0 1.573-.287 2.92-.86 4.04-.573 1.107-1.38 1.953-2.42 2.54-1.027.573-2.22.86-3.58.86-.72 0-1.4-.073-2.04-.22a5.721 5.721 0 01-1.64-.68l.96-1.96c.693.453 1.58.68 2.66.68 1.347 0 2.4-.413 3.16-1.24.76-.827 1.14-2.02 1.14-3.58v-.02a3.97 3.97 0 01-1.58 1.1c-.64.24-1.36.36-2.16.36-.92 0-1.747-.173-2.48-.52a4.148 4.148 0 01-1.72-1.52c-.413-.653-.62-1.407-.62-2.26 0-.907.227-1.7.68-2.38a4.474 4.474 0 011.84-1.6c.773-.373 1.64-.56 2.6-.56zm.2 6.8c.84 0 1.52-.227 2.039-.68.533-.453.8-1.027.8-1.72 0-.68-.26-1.24-.78-1.68-.507-.453-1.213-.68-2.12-.68-.813 0-1.473.22-1.98.66-.507.427-.76 1-.76 1.72 0 .733.253 1.313.76 1.74.507.427 1.187.64 2.04.64zm10.738.94c-1 0-1.807-.353-2.42-1.06-.613-.707-.92-1.633-.92-2.78 0-1.147.307-2.073.92-2.78.613-.707 1.42-1.06 2.42-1.06s1.807.353 2.42 1.06c.627.693.94 1.62.94 2.78 0 1.16-.313 2.093-.94 2.8-.613.693-1.42 1.04-2.42 1.04zm8.4-7.54h1.96l-9.56 14h-1.96l9.56-14zm-8.4 6.14c.547 0 .967-.213 1.26-.64.307-.427.46-1.027.46-1.8 0-.773-.153-1.373-.46-1.8-.293-.427-.713-.64-1.26-.64-.52 0-.94.22-1.26.66-.307.427-.46 1.02-.46 1.78s.153 1.36.46 1.8c.32.427.74.64 1.26.64zm9.18 8c-1 0-1.807-.353-2.42-1.06-.613-.707-.92-1.633-.92-2.78 0-1.147.307-2.073.92-2.78.613-.707 1.42-1.06 2.42-1.06s1.807.353 2.42 1.06c.627.707.94 1.633.94 2.78 0 1.147-.313 2.073-.94 2.78-.613.707-1.42 1.06-2.42 1.06zm0-1.4c.533 0 .953-.213 1.26-.64.307-.44.46-1.04.46-1.8s-.153-1.353-.46-1.78a1.456 1.456 0 00-1.26-.66c-.533 0-.953.213-1.26.64-.307.427-.46 1.027-.46 1.8 0 .773.153 1.373.46 1.8.307.427.727.64 1.26.64z" fill="#868686"/></svg>