<svg width="40" height="39" fill="none" xmlns="http://www.w3.org/2000/svg"><path d="M19.989 39c-5.464 0-6.108-.028-8.24-.119a14.967 14.967 0 01-4.853-.973c-2.68-1.015-4.8-3.08-5.841-5.69a13.921 13.921 0 01-.93-4.728C0 25.418 0 24.74 0 19.46c0-5.334.029-5.957.124-8.022a13.92 13.92 0 01.931-4.723c1.04-2.613 3.163-4.679 5.848-5.691a14.857 14.857 0 014.85-.908C13.875 0 14.573 0 19.99 0c5.508 0 6.14.028 8.24.117a14.95 14.95 0 014.864.908c2.683 1.013 4.806 3.079 5.848 5.691a13.88 13.88 0 01.935 4.794c.124 2.072.124 2.748.124 8.025 0 5.276-.031 5.968-.124 8.015a13.94 13.94 0 01-.933 4.734c-1.045 2.611-3.167 4.676-5.85 5.691a15.036 15.036 0 01-4.855.906C26.117 39 25.42 39 19.988 39zm-.076-35.577c-5.432 0-5.996.026-8.117.119-1.266.016-2.52.244-3.707.672A6.554 6.554 0 004.27 7.916a10.59 10.59 0 00-.69 3.648c-.118 2.095-.118 2.645-.118 7.897 0 5.19.02 5.819.117 7.901a10.71 10.71 0 00.691 3.611 6.56 6.56 0 003.818 3.7c1.186.432 2.44.66 3.707.673 2.15.12 2.716.12 8.117.12 5.448 0 6.013-.025 8.116-.12a11.292 11.292 0 003.709-.673c1.742-.659 3.12-2 3.798-3.695a10.64 10.64 0 00.69-3.65h.025c.096-2.067.096-2.619.096-7.901 0-5.283-.025-5.839-.12-7.904a10.677 10.677 0 00-.691-3.607 6.577 6.577 0 00-3.798-3.702 11.242 11.242 0 00-3.71-.672c-2.147-.119-2.709-.119-8.115-.119zm.076 26.026c-4.153.003-7.9-2.431-9.49-6.166-1.592-3.735-.716-8.036 2.22-10.896 2.935-2.86 7.352-3.718 11.19-2.171 3.837 1.546 6.34 5.19 6.34 9.234-.005 5.517-4.594 9.988-10.26 9.999zm0-16.49c-3.68 0-6.663 2.904-6.663 6.487s2.983 6.487 6.663 6.487 6.663-2.904 6.663-6.487c-.009-3.58-2.987-6.479-6.663-6.487zm10.66-1.542c-1.32-.005-2.387-1.05-2.385-2.335.003-1.286 1.074-2.327 2.395-2.327 1.32 0 2.391 1.041 2.394 2.327 0 .62-.253 1.215-.704 1.653a2.43 2.43 0 01-1.7.682z" fill="#3BCD1B"/></svg>