<svg width="28" height="26" fill="none" xmlns="http://www.w3.org/2000/svg"><path d="M13.987 2.07c3.286-2.855 8.363-2.76 11.528.309 3.163 3.07 3.272 7.961.33 11.151l-11.86 11.498L2.127 13.53c-2.942-3.19-2.832-8.088.33-11.151C5.625-.686 10.692-.79 13.987 2.07zm9.547 2.222c-2.098-2.034-5.482-2.116-7.678-.207l-1.867 1.622-1.869-1.62c-2.203-1.913-5.58-1.829-7.684.208a5.29 5.29 0 00-.268 7.38l9.818 9.52 9.818-9.518c1.922-2.136 1.817-5.36-.27-7.385z" fill="#88C74A"/><path d="M13.986 3.596c2.806-2.438 7.141-2.358 9.844.264 2.702 2.622 2.795 6.798.282 9.522l-10.128 9.819-10.125-9.819A6.78 6.78 0 014.14 3.86c2.706-2.618 7.033-2.706 9.846-.264zm8.153 1.897c-1.792-1.736-4.682-1.807-6.557-.177l-1.594 1.386-1.596-1.384c-1.881-1.633-4.765-1.561-6.562.178a4.517 4.517 0 00-.229 6.302l8.384 8.13 8.384-8.129c1.641-1.823 1.552-4.577-.23-6.306z" fill="#88C74A"/><path d="M13.986 5.136c2.321-2.017 5.907-1.95 8.143.218 2.234 2.17 2.312 5.624.233 7.877l-8.377 8.121-8.376-8.121a5.608 5.608 0 01.233-7.877c2.238-2.165 5.817-2.238 8.145-.218zm6.744 1.57c-1.482-1.437-3.873-1.495-5.424-.147l-1.318 1.146-1.32-1.145c-1.556-1.35-3.942-1.29-5.428.147a3.736 3.736 0 00-.19 5.214l6.936 6.724 6.935-6.723a3.737 3.737 0 00-.191-5.216z" fill="#88C74A"/><path d="M13.986 6.248c1.97-1.713 5.016-1.656 6.915.185a4.762 4.762 0 01.197 6.689l-7.114 6.897-7.112-6.897a4.762 4.762 0 01.198-6.69c1.9-1.838 4.94-1.9 6.916-.184zm5.726 1.332c-1.258-1.22-3.288-1.269-4.605-.124l-1.12.973-1.121-.972a3.435 3.435 0 00-4.61.125 3.173 3.173 0 00-.16 4.427l5.89 5.71 5.888-5.709a3.174 3.174 0 00-.162-4.43z" fill="#88C74A"/><path d="M13.986 7.13c1.97-1.712 5.016-1.656 6.915.186a4.762 4.762 0 01.197 6.689L13.984 20.9l-7.112-6.896a4.762 4.762 0 01.198-6.69c1.9-1.838 4.94-1.9 6.916-.185zm5.726 1.333c-1.258-1.22-3.288-1.27-4.605-.124l-1.12.973-1.121-.972a3.435 3.435 0 00-4.61.125 3.173 3.173 0 00-.16 4.427l5.89 5.71 5.888-5.71a3.174 3.174 0 00-.162-4.429z" fill="#88C74A"/><path fill="#88C74A" d="M6.976 5.889h14.258v11.778H6.976z"/></svg>