<svg width="209" height="38" fill="none" xmlns="http://www.w3.org/2000/svg"><path d="M0 0h183.73L209 19l-25.41 19H0V0z" fill="#88C74A"/><path d="M74.534 26.2a10.78 10.78 0 01-3.14-.46c-1-.307-1.793-.713-2.38-1.22l.9-2.02c.574.453 1.274.827 2.1 1.12.84.28 1.68.42 2.52.42 1.04 0 1.814-.167 2.32-.5.52-.333.78-.773.78-1.32 0-.4-.146-.727-.44-.98-.28-.267-.64-.473-1.08-.62a24.3 24.3 0 00-1.8-.5c-1.066-.253-1.933-.507-2.6-.76a4.402 4.402 0 01-1.7-1.18c-.466-.547-.7-1.28-.7-2.2 0-.773.207-1.473.62-2.1.427-.64 1.06-1.147 1.9-1.52.854-.373 1.894-.56 3.12-.56.854 0 1.694.107 2.52.32.827.213 1.54.52 2.14.92l-.82 2.02a8.093 8.093 0 00-1.92-.82 7.181 7.181 0 00-1.94-.28c-1.026 0-1.793.173-2.3.52-.493.347-.74.807-.74 1.38 0 .4.14.727.42.98.294.253.66.453 1.1.6a24.3 24.3 0 001.8.5c1.04.24 1.894.493 2.56.76a4.214 4.214 0 011.7 1.18c.48.533.72 1.253.72 2.16 0 .773-.213 1.473-.64 2.1-.413.627-1.046 1.127-1.9 1.5-.853.373-1.893.56-3.12.56zm14.419-.78c-.294.24-.654.42-1.08.54a4.72 4.72 0 01-1.32.18c-1.174 0-2.08-.307-2.72-.92-.64-.613-.96-1.507-.96-2.68V17.4h-1.76v-2h1.76v-2.44h2.5v2.44h2.86v2h-2.86v5.08c0 .52.126.92.38 1.2.253.267.62.4 1.1.4.56 0 1.026-.147 1.4-.44l.7 1.78zm6.136-10.22c1.573 0 2.773.38 3.6 1.14.84.747 1.26 1.88 1.26 3.4V26h-2.36v-1.3c-.306.467-.746.827-1.32 1.08-.56.24-1.24.36-2.04.36s-1.5-.133-2.1-.4c-.6-.28-1.067-.66-1.4-1.14a2.985 2.985 0 01-.48-1.66c0-.96.354-1.727 1.06-2.3.72-.587 1.847-.88 3.38-.88h2.76v-.16c0-.747-.227-1.32-.68-1.72-.44-.4-1.1-.6-1.98-.6-.6 0-1.193.093-1.78.28a4.363 4.363 0 00-1.46.78l-.98-1.82c.56-.427 1.233-.753 2.02-.98a8.987 8.987 0 012.5-.34zm-.34 9.12c.627 0 1.18-.14 1.66-.42.493-.293.84-.707 1.04-1.24v-1.24h-2.58c-1.44 0-2.16.473-2.16 1.42 0 .453.18.813.54 1.08.36.267.86.4 1.5.4zm10.789-7.44c.72-1.12 1.986-1.68 3.8-1.68v2.38a3.182 3.182 0 00-.58-.06c-.974 0-1.734.287-2.28.86-.547.56-.82 1.373-.82 2.44V26h-2.5V15.32h2.38v1.56zm12.731 8.54c-.293.24-.653.42-1.08.54a4.71 4.71 0 01-1.32.18c-1.173 0-2.08-.307-2.72-.92-.64-.613-.96-1.507-.96-2.68V17.4h-1.76v-2h1.76v-2.44h2.5v2.44h2.86v2h-2.86v5.08c0 .52.127.92.38 1.2.253.267.62.4 1.1.4.56 0 1.027-.147 1.4-.44l.7 1.78z" fill="#fff"/></svg>