<svg width="30" height="30" fill="none" xmlns="http://www.w3.org/2000/svg"><circle cx="15" cy="15" r="15" fill="#88C74A"/><path d="M22.762 10.365a3.817 3.817 0 001.714-2.096A7.942 7.942 0 0122 9.19c-1.21-1.245-3.128-1.548-4.681-.74-1.554.808-2.358 2.527-1.964 4.196-3.134-.153-6.054-1.592-8.034-3.959-1.032 1.732-.505 3.945 1.207 5.059a3.97 3.97 0 01-1.765-.475v.047c0 1.804 1.308 3.358 3.127 3.715a4.016 4.016 0 01-1.76.065c.511 1.543 1.974 2.6 3.641 2.631a7.966 7.966 0 01-4.841 1.622c-.311 0-.622-.017-.931-.052A11.267 11.267 0 0011.976 23c2.947.02 5.78-1.11 7.865-3.136 2.084-2.026 3.246-4.78 3.225-7.644 0-.164-.004-.328-.012-.49A7.8 7.8 0 0025 9.768a7.968 7.968 0 01-2.238.597z" fill="#fff"/></svg>